<?xml version="1.0" encoding="utf-8"?>
<!-- Generator: Adobe Illustrator 27.5.0, SVG Export Plug-In . SVG Version: 6.00 Build 0)  -->
<svg version="1.1" id="Calque_1" xmlns="http://www.w3.org/2000/svg" xmlns:xlink="http://www.w3.org/1999/xlink" x="0px" y="0px"
	 viewBox="0 0 400 400" style="enable-background:new 0 0 400 400;" xml:space="preserve">
<style type="text/css">
	.st0{fill:#FFFFFF;}
	.st1{fill:#F2CA5A;}
	.st2{fill:#F2CC5F;}
	.st3{fill:#F2CC60;}
	.st4{fill:#F2CB5D;}
	.st5{fill:#F2CB5E;}
	.st6{fill:#FFFEFB;}
	.st7{fill:#FFFEFC;}
	.st8{fill:#FFFDF9;}
	.st9{fill:none;stroke:#000000;stroke-width:4;stroke-miterlimit:10;}
</style>
<g>
	<path class="st0" d="M399.9,199c0,65.3,0,130.6,0.1,195.8c0,3.3-0.5,4.2-4,4.2c-130.6-0.1-261.1-0.1-391.7,0c-3.8,0-4.3-1-4.3-4.4
		C0.1,264.2,0.1,133.8,0,3.4C0,0,0.5-1,4.3-1C134.8-0.9,265.4-0.9,396-1c3.5,0,4,0.9,4,4.2C399.9,68.4,399.9,133.7,399.9,199z
		 M275.9,253.9c-6.8-3.7-10.8-10.1-14.9-16.2c-1-1.4-1.8-2.2-3.6-1c-2,1.3-0.4,2.4,0.2,3.2c3.7,4.9,7.3,9.9,11.8,14.1
		c7.8,7.2,13.1,8,22.5,3c0.4-0.2,0.7-0.5,1.1-0.7c0.6-0.4,1.3-0.8,1.9-1.3c0.4-0.3,0.7-0.5,1.1-0.8c2-1.4,4-2.8,5.9-4.2
		c0.4-0.2,0.7-0.5,1.1-0.7c8.2-4.1,10.3-3.3,13.9,4.9c5.5,12.6,21.1,20.3,33.5,16.8c1.9-0.5,1.7-1.9,1.8-3c0.2-1.6-1.3-0.9-2.1-1
		c-4.1-0.5-8.7,1.4-12-2.8c-0.2-0.3-1.3-0.1-1.9,0.2c-5.7,2.1-9.2-0.9-12-5.2c-2.3-3.4-4.3-7-6.2-10.7c-2.8-5.5-6.1-7.5-14.5-3.8
		c-5.2,2.3-9.3,6.2-14,9.3c-4.2,2.7-8.2,3.9-12.6,0.7C276.6,254.4,276.2,254.2,275.9,253.9z M102,246.2c1.3-0.7,2.6-1.6,3.9-2.1
		c5.9-2.2,12-3.2,18.1-4.4c1.1-0.2,4,0.2,3.5-2.3c-0.4-2-2.8-1.7-4.3-1.4c-4.5,1-9,1.5-13.5,2.8c-10.5,3.1-18.3,8.3-16.8,19.7
		c0.3,2.4-1.1,4.7,0.7,7.4c1.4,2.1,1.3,5.4,1.3,8.2c0,5.9-1.2,6.9-7.1,7c-2.5,0-5,0.1-7.5,0c-8-0.4-14.3,2.9-18.9,9.1
		c-3,4.1-5.4,8.7-8.2,12.9c-0.9,1.3-1,2,0.4,2.7c1.1,0.5,2.3,1.3,3.3-0.5c1.2-2.4,2.6-4.6,4-6.9c4.7-8,10.3-14.3,20.9-12.5
		c1.1,0.2,2.4,0.3,3.5,0c5-1.3,11.4,0.1,13.3-7c0.7-2.6,1-5.5,0.2-7.9c-1.1-3.2,1.7-6.2,0-9.1c-3.3-5.6-2.7-10.4,2-14.9
		C101.3,246.7,101.6,246.5,102,246.2z M161,260.7c-0.3-0.2-0.7-0.5-1-0.7c-0.9,0-1.7,0.1-2.2,0.8c-5.2,7.3-9,15.3-10.6,24.2
		c-0.8,4.3,0.7,8.1,3.8,11.3c4,4,8.7,6.8,13.6,9.7c9.5,5.6,9.7,8.4,3.7,14.5c-1.3,1.3-2.3,2.8-3.4,4.3c-3.3,4.7-7.1,9.9-6.2,15.6
		c1,6.4,4.2,12.4,6.5,18.5c0.5,1.3,1.2,2.4,2.9,1.5c1.3-0.7,2.2-1.3,1.4-3c-0.9-1.8-1.6-3.7-2.3-5.5c-3.9-9.3-5.4-18.4,2.6-26.6
		c2-2,3.7-4.3,5.2-6.7c2.8-4.5-1.1-15.4-6.2-16.5c-6-1.3-10.4-4.7-14.6-8.6c-2.3-2.1-3.9-4.9-2.9-8c2.1-7,3.5-14.4,9.5-19.6
		C162.3,264.3,162.8,262.6,161,260.7z M189.2,260.1c23.1,0.2,40.4-6.9,54.7-21.5c16.6-17,23-37.6,18.7-60.3
		c-6.9-36.2-34.8-54.8-68.2-57c-8.1-0.5-16.1,1.1-24,4.2c-5.3,2.1-10.9,3.3-15.8,6.4c-25.8,16.7-36.2,41.4-32.3,69.2
		C127.1,234.4,158.2,261.1,189.2,260.1z M278.9,336.4c-0.3-2.1-2-2.4-3.2-3c-12.6-5.9-19.9-14.6-18-29.6c0.5-3.7,2.3-11.5-6.9-10.4
		c-0.8,0.1-1.7-0.9-2.5-1.5c-0.9-0.7-2-1.2-2.7-0.6c-3.4,3.4-7.8,1.9-11.7,3c-11.6,3.2-15.8-3.7-18.8-13c-1.4-4.5-2.1-9.3-3-14
		c-0.2-1-0.1-2.1-1.5-2.2c-0.8-0.1-2-0.2-2.2,0.6c-0.6,2-1.9,4.9-1.1,6.1c3.9,5.5,2.2,12.5,6,18.3c3.3,5.2,7.6,7.3,12.8,8.8
		c5.6,1.7,11.5-3.1,17.1,0.3c0.3,0.2,0.9-0.3,1.4-0.5c4.7-2.2,9,0.2,9.4,5.4c0.2,3.1,0.8,6.6-0.1,9.4c-1.7,5.5,1.6,8.6,4.6,12
		c1.2,1.4,2.4,2.8,3.8,3.9c4.2,3.4,7.9,7.4,13.5,8.8C278.2,339,278.5,337.9,278.9,336.4z M46.4,100c-1.6,0-3.3-0.2-3.3,2.1
		c-0.1,2.1,1.5,1.6,2.8,1.9c4.1,0.7,8.1,1.3,12.1,2.1c7.3,1.5,12.1,5.7,14.3,12.9c0.5,1.6,1.1,3.1,1.7,4.7
		c3.3,8.7,8.3,10.7,16.6,6.4c4.4-2.2,8.7-4.8,13.1-7c5.6-2.8,9.5-1.9,14.2,2.3c5.3,4.7,9.5,10.1,12.7,16.4c0.8,1.5,1.1,2.9,3.1,1.8
		c1.6-0.9,1-2.1,0.4-3.4c-3.2-6.1-6.4-12.3-11.6-17.1c-6.9-6.5-13.1-7.4-21.6-3.3c-2.5,1.2-5,2.6-7.4,4.1c-11.1,6.5-12.7,6-17-5.7
		c-0.2-0.6-0.4-1.3-0.7-1.9c-2.4-4.9-4.7-9.9-10.4-12.1C59.3,101.8,52.8,101.2,46.4,100z M43.5,205c-10-0.8-16.2,6.2-23.5,11.1
		c-1.3,0.9-1,1.9-0.2,3c1.1,1.3,1.9,0.6,2.9-0.1c2.6-1.8,5.3-3.4,7.8-5.3c6.6-5.1,13.6-5.9,21.4-2.9c2.3,0.9,4.5,2.1,6.7,3.3
		c5.7,2.9,9.3,2.1,13.1-3.1c3.3-4.6,3.4-10.2,5.4-15.2c2.1-5.5,3.9-11.3,11.1-11.6c3.6-0.1,7.2-0.3,10.8,0.6c3.8,1,7.7,1.6,11.4,3
		c1.7,0.6,3.2,0.6,4-1.6c1.1-2.8-1.6-2.2-2.5-2.5c-4.7-1.4-9.5-2.7-14.3-3.5c-11.7-2-19.2,1.2-23,9.9c-1.6,3.7-2.6,7.8-3.5,11.7
		c-2.2,9.3-5.5,11-13.9,6.9C52.9,206.5,48.5,204.6,43.5,205z M347.2,192c8.2-1.2,15.4-4.1,22.6-7.1c1.2-0.5,1.4-1.3,1.2-2.3
		c-0.3-1.5-1.4-1.8-2.6-1.5c-2.2,0.7-4.4,1.5-6.5,2.4c-8.8,4.3-17.4,5.9-25.5-1.6c-1.9-1.8-4.3-3.1-6.5-4.5c-5-3.2-8.7-2.7-12.5,1.8
		c-3.3,4-5.6,8.6-8.1,13.1c-4.8,8.5-8.9,10.1-18.3,7.9c-5.7-1.4-10.6-4.5-15.7-7.3c-1.5-0.8-3.1-1.9-4.3,0c-1.5,2.3,1.1,2.9,2.2,3.6
		c3.5,2.2,7,4.4,10.8,5.9c14.8,5.7,22.1,4.6,30-10.1c2.2-4,4.1-8.3,7.7-11.5c1.5-1.4,2.8-2.2,4.8-0.8c2.5,1.9,5,3.8,7.6,5.5
		C338.3,188.2,342.4,191.3,347.2,192z M223.9,47.8c0.9-7.7-3.1-14.1-5.2-21c-0.6-1.8-2.2-2-3.7-1.5c-1.5,0.6-0.9,1.8-0.4,2.9
		c0.7,1.7,1.3,3.4,2.1,5c4.4,9.6,5.7,19-2.5,27.5c-1.5,1.5-2.7,3.3-4,5.1c-3.3,4.6-3,7.7,0.9,11.8c3.6,3.8,8.1,6.2,12.6,8.5
		c9.1,4.6,11.5,10.1,8.3,19.9c-1.8,5.3-4.2,10.4-7,15.2c-0.8,1.3-1.5,2.7,0.5,3.7c1.8,0.9,2.4-0.5,3.1-1.5c2.9-4.6,5.7-9.4,7.1-14.7
		c3.2-12.5,2.8-19.9-8.9-25.5c-2.4-1.1-4.7-2.5-6.9-3.9c-9.4-6.1-9.4-7-2.7-15.8C220.6,58.8,225.2,54.5,223.9,47.8z M299.8,110.1
		c4.5,0,8.9-0.4,13-2.1c9.9-4,13-13.5,17.5-21.9c0.6-1.2,0.2-1.8-0.8-2.4c-1.2-0.8-2.4-0.4-3,0.6c-1.2,2-2.2,4.1-3.2,6.2
		c-3.8,8.2-9.5,14.3-19,15.4c-2.6,0.3-5.3,0.2-8,0.2c-6.2,0.1-10,2.6-10.2,8.5c-0.2,6.1,0.5,12.3,1.8,18.2c1.4,6,0.7,9.8-4.3,13.3
		c-6.2,4.3-13.3,6.1-20.8,7c-1.5,0.2-3.3,0.4-3.3,2c0,2.3,2,2.2,3.7,2c7.5-1.1,14.7-2.9,21.3-7.1c5.9-3.8,9-8.6,8.2-15.7
		c-0.5-4.6-1.3-9.1-2-13.7C289.4,111.9,291.1,109.9,299.8,110.1z M154.9,87c5.5,0.9,12.2-0.4,15,6.2c2.8,6.4,4.1,13.2,2.4,20.3
		c-0.4,1.7-0.1,3.6-0.2,5.4c-0.1,1.8,1.1,2.6,2.3,2.6c1.3,0,1.7-1.3,1.7-2.6c-0.1-5.9,1.1-11.6,0.1-17.7
		c-2.3-14.7-6.3-17.8-20.2-18.2c-4.2-0.1-8.1-0.9-12.1-1.9c-4.8-1.3-5.5-4-4.3-8.5c1.8-6.8,4.2-13.7,0.8-20.8
		c-3.1-6.5-8.1-11.2-13.5-15.7c-1.1-0.9-2-3.3-4-1.2c-2.1,2.2,0.2,3.1,1.4,4.3c4.4,4,8.8,8.1,11.8,13.4c3.9,6.9,0.4,13.5-0.8,20.1
		c-1.1,6.6,0,9.7,6.3,12C146,86.3,150.4,86.7,154.9,87z"/>
	<path class="st1" d="M189.2,260.1c-31.1,1.1-62.1-25.6-66.8-59.1c-3.9-27.8,6.5-52.5,32.3-69.2c4.9-3.2,10.5-4.4,15.8-6.4
		c7.9-3.1,15.9-4.7,24-4.2c33.4,2.2,61.3,20.8,68.2,57c4.3,22.8-2,43.4-18.7,60.3C229.6,253.2,212.3,260.3,189.2,260.1z"/>
	<path class="st2" d="M161,260.7c1.8,1.8,1.4,3.6-0.4,5.1c-6,5.2-7.3,12.6-9.5,19.6c-0.9,3.1,0.6,5.9,2.9,8
		c4.2,3.9,8.7,7.4,14.6,8.6c5.1,1.1,9,12,6.2,16.5c-1.5,2.4-3.2,4.7-5.2,6.7c-8.1,8.2-6.6,17.3-2.6,26.6c0.8,1.8,1.4,3.7,2.3,5.5
		c0.9,1.7-0.1,2.4-1.4,3c-1.7,0.9-2.4-0.2-2.9-1.5c-2.3-6.1-5.5-12.1-6.5-18.5c-0.9-5.7,2.9-10.9,6.2-15.6c1-1.5,2.1-3,3.4-4.3
		c6.1-6.2,5.8-8.9-3.7-14.5c-4.8-2.9-9.6-5.6-13.6-9.7c-3.1-3.2-4.6-7-3.8-11.3c1.6-8.9,5.4-16.9,10.6-24.2c0.5-0.8,1.4-0.9,2.2-0.8
		C160.3,260.2,160.6,260.5,161,260.7z"/>
	<path class="st2" d="M122.3,233.5c0.3,2.5-1.2,3.7-3.5,3.8c-7.9,0.4-13.6,5.3-19.7,9.4c-2.7,1.8-3.2,5-2.7,8.1
		c0.8,5.7,2.2,11.2,6,15.9c3.3,4-0.4,15-5.5,16.7c-2.6,0.9-5.4,1.6-8.2,2c-11.4,1.4-15.9,9.4-18.7,19.1c-0.5,1.9-1.2,3.8-1.6,5.7
		c-0.4,1.9-1.5,1.8-3,1.5c-1.9-0.4-1.8-1.7-1.3-3c2-6.2,3.3-12.9,6.4-18.5c2.9-5,9.1-6.6,14.6-8.3c1.7-0.5,3.5-1,5.3-1.2
		c8.6-1,10.1-3.4,6.2-13.7c-2-5.2-4-10.4-4.6-16c-0.5-4.4,0.8-8.3,4.1-11.2c6.8-5.9,14.7-9.8,23.4-12.3c0.9-0.3,1.6,0.2,2.3,0.7
		C122.1,232.7,122.2,233.1,122.3,233.5z"/>
	<path class="st2" d="M42.4,97c6.3,1.1,12.9,1.8,19.1,4.2c5.7,2.2,8,7.2,10.4,12.1c0.3,0.6,0.5,1.2,0.7,1.9
		c4.3,11.8,5.9,12.3,17,5.7c2.4-1.4,4.9-2.8,7.4-4.1c8.5-4.2,14.7-3.2,21.6,3.3c5.1,4.8,8.3,11,11.6,17.1c0.7,1.3,1.2,2.5-0.4,3.4
		c-1.9,1.1-2.3-0.3-3.1-1.8c-3.2-6.3-7.4-11.7-12.7-16.4c-4.7-4.2-8.6-5.1-14.2-2.3c-4.4,2.2-8.7,4.7-13.1,7
		c-8.3,4.2-13.3,2.3-16.6-6.4c-0.6-1.5-1.2-3.1-1.7-4.7c-2.2-7.1-7.1-11.4-14.3-12.9c-4-0.8-8.1-1.5-12.1-2.1
		c-1.2-0.2-2.8,0.2-2.8-1.9C39.1,96.9,40.8,97.1,42.4,97z"/>
	<path class="st2" d="M43.5,205c5-0.3,9.4,1.6,13.7,3.7c8.4,4.1,11.7,2.4,13.9-6.9c1-4,1.9-8,3.5-11.7c3.7-8.7,11.3-11.9,23-9.9
		c4.8,0.8,9.6,2.1,14.3,3.5c0.9,0.3,3.5-0.3,2.5,2.5c-0.8,2.1-2.3,2.2-4,1.6c-3.7-1.4-7.6-2-11.4-3c-3.7-1-7.3-0.8-10.8-0.6
		c-7.3,0.3-9,6.2-11.1,11.6c-1.9,5-2.1,10.7-5.4,15.2c-3.7,5.2-7.3,6-13.1,3.1c-2.2-1.1-4.4-2.3-6.7-3.3c-7.7-3.1-14.8-2.2-21.4,2.9
		c-2.5,1.9-5.2,3.5-7.8,5.3c-1,0.7-1.9,1.5-2.9,0.1c-0.8-1.1-1.1-2.1,0.2-3C27.2,211.2,33.5,204.2,43.5,205z"/>
	<path class="st3" d="M350.2,199c-4.8-0.7-8.9-3.8-13.2-6.6c-2.6-1.7-5.1-3.6-7.6-5.5c-1.9-1.4-3.2-0.6-4.8,0.8
		c-3.5,3.2-5.5,7.5-7.7,11.5c-7.9,14.7-15.2,15.8-30,10.1c-3.8-1.5-7.4-3.7-10.8-5.9c-1.1-0.7-3.7-1.3-2.2-3.6
		c1.3-1.9,2.8-0.8,4.3,0c5,2.8,9.9,5.9,15.7,7.3c9.5,2.3,13.6,0.6,18.3-7.9c2.5-4.5,4.8-9.1,8.1-13.1c3.8-4.5,7.5-4.9,12.5-1.8
		c2.2,1.4,4.6,2.8,6.5,4.5c8.1,7.5,16.6,5.9,25.5,1.6c2.1-1,4.3-1.8,6.5-2.4c1.2-0.4,2.3-0.1,2.6,1.5c0.2,1.1,0,1.8-1.2,2.3
		C365.6,195,358.4,197.8,350.2,199z"/>
	<path class="st3" d="M225.9,43.8c1.3,6.7-3.3,11.1-6.8,15.7c-6.7,8.8-6.7,9.6,2.7,15.8c2.2,1.4,4.5,2.8,6.9,3.9
		c11.7,5.6,12.1,13,8.9,25.5c-1.4,5.3-4.2,10.1-7.1,14.7c-0.7,1.1-1.3,2.5-3.1,1.5c-2-1-1.3-2.4-0.5-3.7c2.9-4.8,5.3-9.9,7-15.2
		c3.2-9.8,0.8-15.3-8.3-19.9c-4.5-2.3-9-4.7-12.6-8.5c-3.9-4.1-4.2-7.2-0.9-11.8c1.2-1.8,2.5-3.5,4-5.1c8.2-8.5,6.9-17.8,2.5-27.5
		c-0.7-1.6-1.3-3.4-2.1-5c-0.5-1.1-1.1-2.4,0.4-2.9c1.5-0.6,3.1-0.4,3.7,1.5C222.8,29.6,226.8,36.1,225.9,43.8z"/>
	<path class="st3" d="M228.1,287.2c2.7,6.3,8.9,7.3,14.5,9.2c10.5,3.5,10.9,4.2,6.6,14.6c-1,2.4-2.2,4.8-3.5,7.1
		c-6.5,11.2-2.7,17.5,6.9,26.1c4.1,3.6,9.1,6,14.1,8.2c1.2,0.5,2.5,1.3,3.4-0.4c1.1-2-0.3-2.7-1.7-3.4c-5.1-2.4-9.9-5.2-14.4-8.6
		c-8.2-6.3-9.2-12.2-4.3-21.1c2.5-4.4,4.9-9,5.7-14.1c0.9-5.6-0.5-8.3-5.9-10.3c-2-0.8-4-1.5-6.1-2c-11.6-2.4-15.7-10.9-17.5-21.3
		c-0.3-1.8-0.8-3.5-1.1-5.3c-0.2-1.2-0.4-2.5-2-2.2c-1.5,0.4-2.8,1.5-2.2,3.3C222.8,273.8,223.1,281.3,228.1,287.2z"/>
	<path class="st3" d="M276.4,257.4c5.3,4.2,11.4,2.2,17.1,1.2c10.9-1.9,11.6-1.5,12.7,9.7c0.3,2.6,0.4,5.3,0.3,7.9
		c-0.4,13,5.9,16.7,18.5,19.6c5.3,1.2,10.9,0.9,16.3,0.5c1.3-0.1,2.8,0,2.8-2c0-2.2-1.6-2.2-3.1-2.2c-5.6,0.3-11.2,0.2-16.7-0.7
		c-10.2-1.6-13.9-6.3-13.8-16.5c0-5.1,0-10.2-1.7-15.1c-1.9-5.4-4.4-7-10.1-6.3c-2.1,0.3-4.3,0.6-6.3,1.2
		c-11.3,3.4-19-2.1-25.5-10.4c-1.1-1.4-2.4-2.7-3.5-4.1c-0.8-0.9-1.6-2-2.8-1c-1.2,1.1-1.8,2.6-0.4,4
		C265.3,248.2,269.2,254.6,276.4,257.4z"/>
	<path class="st4" d="M304.1,109.1c-8.8-0.2-10.4,1.8-8.9,10.5c0.8,4.5,1.5,9.1,2,13.7c0.8,7-2.3,11.9-8.2,15.7
		c-6.6,4.2-13.8,6.1-21.3,7.1c-1.7,0.2-3.7,0.3-3.7-2c0-1.6,1.8-1.8,3.3-2c7.4-0.9,14.5-2.7,20.8-7c5-3.4,5.6-7.3,4.3-13.3
		c-1.3-5.9-2-12.2-1.8-18.2c0.2-5.8,4.1-8.4,10.2-8.5c2.7,0,5.3,0.1,8-0.2c9.5-1.1,15.2-7.2,19-15.4c1-2.1,2-4.2,3.2-6.2
		c0.7-1.1,1.8-1.4,3-0.6c0.9,0.6,1.4,1.3,0.8,2.4c-4.5,8.4-7.7,17.9-17.5,21.9C313,108.6,308.6,109.1,304.1,109.1z"/>
	<path class="st5" d="M151.9,82c-4.5-0.2-8.9-0.6-13.1-2.2c-6.3-2.3-7.4-5.4-6.3-12c1.1-6.6,4.6-13.2,0.8-20.1
		c-3-5.3-7.3-9.4-11.8-13.4c-1.3-1.1-3.6-2-1.4-4.3c2-2.1,2.9,0.3,4,1.2c5.4,4.5,10.4,9.2,13.5,15.7c3.3,7.1,0.9,14-0.8,20.8
		c-1.2,4.6-0.5,7.3,4.3,8.5c4,1,8,1.8,12.1,1.9c13.9,0.4,17.9,3.5,20.2,18.2c1,6.1-0.3,11.8-0.1,17.7c0,1.2-0.3,2.6-1.7,2.6
		c-1.3,0-2.5-0.8-2.3-2.6c0.1-1.8-0.2-3.7,0.2-5.4c1.7-7.1,0.4-13.9-2.4-20.3C164.1,81.6,157.4,82.8,151.9,82z"/>
	<path class="st6" d="M100.9,247c0.4-0.3,0.7-0.5,1.1-0.8C101.6,246.5,101.3,246.7,100.9,247z"/>
	<path class="st7" d="M301.8,250c0.2-0.5,0.4-0.9,1.1-0.7C302.5,249.5,302.2,249.7,301.8,250z"/>
	<path class="st8" d="M276.9,254.7c-0.7,0.2-0.9-0.2-1.1-0.7C276.2,254.2,276.6,254.4,276.9,254.7z"/>
	<path class="st7" d="M294.9,255c0.2-0.5,0.4-0.9,1.1-0.8C295.6,254.5,295.2,254.7,294.9,255z"/>
	<path class="st7" d="M291.9,257c0.2-0.5,0.4-0.9,1.1-0.7C292.6,256.5,292.2,256.7,291.9,257z"/>
	<path class="st7" d="M161,260.7c-0.3-0.2-0.7-0.5-1-0.7C160.3,260.2,160.6,260.5,161,260.7z"/>
</g>
<g>
	<g>
		<line class="st9" x1="191.5" y1="225" x2="191.3" y2="154.7"/>
		<g>
			<polygon points="189.5,223.4 172.7,233.1 172.7,237.7 189.5,227.9 189.5,232.5 172.7,242.2 172.7,246.8 189.5,237 189.6,241.6 
				172.8,251.3 172.8,255.9 189.6,246.1 189.6,250.8 193.5,250.8 193.5,246.1 210.4,255.8 210.4,251.2 193.5,241.6 193.5,237 
				210.4,246.7 210.3,242.1 193.5,232.5 193.5,227.9 210.3,237.6 210.3,233 193.5,223.4 			"/>
		</g>
		<g>
			<polygon points="191.2,126.5 207.6,166.3 191.3,156.9 175.1,166.3 			"/>
		</g>
	</g>
</g>
</svg>
